<?xml version="1.0" encoding="UTF-8"?><svg id="a" xmlns="http://www.w3.org/2000/svg" viewBox="0 0 20 20"><defs><style>.d{fill:#fff;}.e{fill:#2d2d2d;}</style></defs><circle id="b" class="e" cx="10" cy="10" r="10"/><path id="c" class="d" d="M13,6.5h0c-.4,0-.7,.3-.7,.7s.3,.7,.7,.7,.7-.3,.7-.7-.3-.7-.7-.7h0Zm2.5,1.3c0-.5,0-.9-.3-1.3-.1-.4-.4-.7-.6-1-.3-.3-.6-.5-1-.6-.4-.2-.9-.2-1.3-.3-.6,0-.8,0-2.3,0s-1.7,0-2.3,0c-.5,0-.9,0-1.3,.3-.4,.1-.7,.4-1,.6-.3,.3-.5,.6-.6,1-.2,.4-.2,.9-.3,1.3,0,.6,0,.8,0,2.3s0,1.7,0,2.3c0,.5,0,.9,.3,1.3,.1,.4,.4,.7,.6,1,.3,.3,.6,.5,1,.6,.4,.2,.9,.2,1.3,.3,.6,0,.8,0,2.3,0s1.7,0,2.3,0c.5,0,.9,0,1.3-.3,.4-.1,.7-.3,1-.6,.3-.3,.5-.6,.6-1,.2-.4,.2-.9,.3-1.3,0-.6,0-.8,0-2.3s0-1.7,0-2.3h0Zm-1,4.5c0,.3,0,.7-.2,1,0,.2-.2,.5-.4,.6-.2,.2-.4,.3-.6,.4-.3,.1-.7,.2-1,.2-.5,0-.8,0-2.2,0s-1.6,0-2.2,0c-.4,0-.7,0-1.1-.2-.2,0-.4-.2-.6-.4-.2-.2-.3-.4-.4-.6-.1-.3-.2-.7-.2-1,0-.5,0-.8,0-2.2s0-1.6,0-2.2c0-.4,0-.7,.2-1,0-.2,.2-.4,.4-.6,.2-.2,.4-.3,.6-.4,.3-.1,.7-.2,1-.2,.5,0,.8,0,2.2,0s1.6,0,2.2,0c.3,0,.7,0,1,.2,.2,0,.5,.2,.7,.4,.2,.2,.3,.4,.4,.6,.1,.3,.2,.7,.2,1,0,.5,0,.8,0,2.2s0,1.6,0,2.2Zm-4.5-5c-1.6,0-2.8,1.3-2.8,2.8,0,1.6,1.3,2.8,2.8,2.8,1.6,0,2.8-1.3,2.8-2.8,0-.7-.3-1.5-.8-2-.5-.5-1.2-.8-2-.8Zm0,4.6c-1,0-1.8-.8-1.8-1.8,0-1,.8-1.8,1.8-1.8,1,0,1.8,.8,1.8,1.8s-.8,1.8-1.8,1.8h0Z"/></svg>