<?xml version="1.0" encoding="UTF-8"?><svg id="a" xmlns="http://www.w3.org/2000/svg" viewBox="0 0 20 20"><defs><style>.c{fill:#fff;}.d{fill:#2d2d2d;}</style></defs><circle id="b" class="d" cx="10" cy="10" r="10"/><path class="c" d="M10.2,4.2c-3.2,0-4.9,2-4.9,4.3s.6,2.3,1.5,2.7c.1,0,.2,0,.2,0,0,0,.1-.6,.2-.8,0,0,0-.1,0-.2-.4-.5-.5-1-.6-1.6,0-1.6,1.2-3.1,3.3-3.1s3.1,1.2,3.1,2.9-1,3.2-2.3,3.2c-.6,0-1.1-.4-1.1-.9,0-.1,0-.2,0-.3,.2-.8,.6-1.7,.6-2.3,0-.5-.3-.9-.8-1,0,0,0,0-.1,0-.7,0-1.3,.7-1.3,1.7,0,.4,0,.7,.2,1l-.9,3.5c-.2,.9,0,2.4,0,2.6,0,0,0,0,0,0,0,0,0,0,0,0,.5-.7,.9-1.5,1.2-2.3,0-.3,.5-1.7,.5-1.7,.4,.5,1,.8,1.7,.8,2.2,0,3.8-2,3.8-4.4,0-2.3-2-4.1-4.6-4.1"/></svg>